<svg version="1.0" xmlns="http://www.w3.org/2000/svg"
 width="702.000000pt" height="558.000000pt" viewBox="0 0 702.000000 558.000000"
 preserveAspectRatio="xMidYMid meet">

<g transform="translate(0.000000,558.000000) scale(0.100000,-0.100000)"
fill="#ff" stroke="none">
<path d="M0 2790 l0 -2790 3510 0 3510 0 0 2790 0 2790 -3510 0 -3510 0 0
-2790z m3934 2265 c63 -8 140 -21 173 -28 l58 -14 3 -2291 c1 -1261 1 -2292 0
-2292 -2 0 -59 -11 -128 -25 -69 -13 -133 -25 -142 -25 -17 0 -18 68 -18 1285
l0 1285 -315 0 -315 0 0 -1280 c0 -1212 -1 -1280 -17 -1280 -19 0 -164 31
-232 50 l-41 11 0 2273 0 2274 88 20 c257 61 594 75 886 37z m-1222 -2302 c-1
-1204 -4 -2201 -5 -2217 l-2 -28 -142 72 -143 72 0 1149 0 1149 -444 0 -445 0
-7 -46 c-13 -86 2 -431 24 -554 41 -225 115 -426 236 -639 68 -118 203 -308
292 -411 l57 -64 -64 -59 c-35 -32 -85 -76 -111 -97 l-46 -40 -79 92 c-337
395 -522 785 -587 1238 -33 230 -30 510 9 736 131 763 628 1438 1300 1765 77
38 145 68 150 69 7 0 9 -734 7 -2187z m1870 2111 c222 -110 414 -249 594 -428
212 -212 346 -400 479 -671 212 -433 285 -890 220 -1375 -34 -258 -101 -479
-215 -709 -118 -236 -227 -395 -412 -599 l-39 -42 -109 96 c-61 53 -110 98
-110 100 0 1 35 42 77 91 245 281 411 589 480 888 37 166 52 318 53 543 l0
202 -445 0 -445 0 -2 -1152 -3 -1152 -70 -37 c-38 -21 -105 -54 -147 -73 l-78
-35 0 2215 0 2215 23 -6 c12 -4 79 -36 149 -71z"/>
<path d="M3397 4789 c-38 -4 -86 -10 -108 -14 l-39 -7 0 -764 0 -764 315 0
315 0 0 764 c0 720 -1 765 -17 770 -82 24 -323 32 -466 15z"/>
<path d="M2325 4358 c-274 -220 -462 -454 -605 -752 -54 -111 -140 -328 -140
-352 0 -2 189 -4 420 -4 l420 0 0 590 c0 325 -1 590 -3 590 -1 0 -43 -32 -92
-72z"/>
<path d="M4710 3840 l0 -590 415 0 c228 0 415 3 415 8 0 14 -49 158 -79 235
-126 317 -352 614 -653 859 l-98 79 0 -591z"/>
</g>
</svg>
